<mxfile host="app.diagrams.net" modified="2023-05-16T21:51:40.767Z" agent="Mozilla/5.0 (X11; Linux x86_64) AppleWebKit/537.36 (KHTML, like Gecko) Chrome/113.0.0.0 Safari/537.36" version="21.3.2" etag="HQhET8d7mruuH7Nm29H3" type="github">
  <diagram name="PÃ¡gina-1" id="h_rX7JDbDqmv7w6mVIwh">
    <mxGraphModel>
      <root>
        <mxCell id="0" />
        <mxCell id="1" parent="0" />
      </root>
    </mxGraphModel>
  </diagram>
</mxfile>
